# Blender v2.78 (sub 0) OBJ File: 'salle.blend'
# www.blender.org
mtllib salle.mtl
o Cube.009
v 65.437218 -4.000000 -7.775564
v 65.437218 6.000000 -7.775564
v 63.899845 -4.000000 -7.775564
v 63.899845 6.000000 -7.775564
v 65.437218 -4.000000 -46.209930
v 65.437218 6.000000 -46.209930
v 63.899845 -4.000000 -46.209930
v 63.899845 6.000000 -46.209930
vn 0.0000 0.0000 1.0000
vn -1.0000 0.0000 0.0000
vn 0.0000 0.0000 -1.0000
vn 1.0000 0.0000 0.0000
vn 0.0000 -1.0000 0.0000
vn 0.0000 1.0000 0.0000
usemtl Material.002
s off
f 1//1 2//1 4//1 3//1
f 3//2 4//2 8//2 7//2
f 7//3 8//3 6//3 5//3
f 5//4 6//4 2//4 1//4
f 3//5 7//5 5//5 1//5
f 8//6 4//6 2//6 6//6
o Cube.008
v 63.873192 -4.000000 -9.531868
v 63.873192 -4.000000 -7.994493
v 25.438826 -4.000000 -7.994493
v 25.438835 -4.000000 -9.531868
v 63.873199 6.000000 -9.531868
v 63.873177 6.000000 -7.994493
v 25.438820 6.000000 -7.994493
v 25.438829 6.000000 -9.531868
vn 0.0000 -1.0000 0.0000
vn 0.0000 1.0000 0.0000
vn 1.0000 -0.0000 0.0000
vn 0.0000 -0.0000 1.0000
vn -1.0000 -0.0000 -0.0000
vn 0.0000 0.0000 -1.0000
usemtl Material.011
s off
f 9//7 10//7 11//7 12//7
f 13//8 16//8 15//8 14//8
f 9//9 13//9 14//9 10//9
f 10//10 14//10 15//10 11//10
f 11//11 15//11 16//11 12//11
f 13//12 9//12 12//12 16//12
o Cube.007
v 26.987015 -4.000000 30.316158
v 26.987015 6.000000 30.316158
v 25.449640 -4.000000 30.316158
v 25.449640 6.000000 30.316158
v 26.987013 -4.000000 -8.118205
v 26.987013 6.000000 -8.118205
v 25.449638 -4.000000 -8.118205
v 25.449638 6.000000 -8.118205
vn 0.0000 0.0000 1.0000
vn -1.0000 0.0000 0.0000
vn 0.0000 0.0000 -1.0000
vn 1.0000 0.0000 -0.0000
vn 0.0000 -1.0000 0.0000
vn 0.0000 1.0000 0.0000
usemtl Material.010
s off
f 17//13 18//13 20//13 19//13
f 19//14 20//14 24//14 23//14
f 23//15 24//15 22//15 21//15
f 21//16 22//16 18//16 17//16
f 19//17 23//17 21//17 17//17
f 24//18 20//18 18//18 22//18
o Cube.006
v 63.873192 -4.000000 -46.175388
v 63.873192 -4.000000 -44.638012
v 25.438826 -4.000000 -44.638012
v 25.438835 -4.000000 -46.175388
v 63.873199 6.000000 -46.175388
v 63.873177 6.000000 -44.638012
v 25.438820 6.000000 -44.638012
v 25.438829 6.000000 -46.175388
vn 0.0000 -1.0000 0.0000
vn 0.0000 1.0000 0.0000
vn 1.0000 0.0000 0.0000
vn 0.0000 0.0000 1.0000
vn -1.0000 -0.0000 -0.0000
vn 0.0000 0.0000 -1.0000
usemtl Material.009
s off
f 25//19 26//19 27//19 28//19
f 29//20 32//20 31//20 30//20
f 25//21 29//21 30//21 26//21
f 26//22 30//22 31//22 27//22
f 27//23 31//23 32//23 28//23
f 29//24 25//24 28//24 32//24
o Cube.005
v 25.426476 -4.000000 -46.175388
v 25.426476 -4.000000 -44.638012
v -13.007890 -4.000000 -44.638012
v -13.007880 -4.000000 -46.175388
v 25.426487 6.000000 -46.175388
v 25.426464 6.000000 -44.638012
v -13.007895 6.000000 -44.638012
v -13.007886 6.000000 -46.175388
vn 0.0000 -1.0000 0.0000
vn 0.0000 1.0000 -0.0000
vn 1.0000 0.0000 0.0000
vn 0.0000 0.0000 1.0000
vn -1.0000 -0.0000 -0.0000
vn 0.0000 0.0000 -1.0000
usemtl Material.008
s off
f 33//25 34//25 35//25 36//25
f 37//26 40//26 39//26 38//26
f 33//27 37//27 38//27 34//27
f 34//28 38//28 39//28 35//28
f 35//29 39//29 40//29 36//29
f 37//30 33//30 36//30 40//30
o Cube.004
v -51.461338 -4.000000 -44.626163
v -51.461338 6.000000 -44.626163
v -51.461338 -4.000000 -46.163540
v -51.461338 6.000000 -46.163540
v -13.026974 -4.000000 -44.626163
v -13.026974 6.000000 -44.626163
v -13.026974 -4.000000 -46.163540
v -13.026974 6.000000 -46.163540
vn -1.0000 0.0000 0.0000
vn 0.0000 0.0000 -1.0000
vn 1.0000 0.0000 0.0000
vn 0.0000 0.0000 1.0000
vn 0.0000 -1.0000 0.0000
vn 0.0000 1.0000 0.0000
usemtl Material.007
s off
f 41//31 42//31 44//31 43//31
f 43//32 44//32 48//32 47//32
f 47//33 48//33 46//33 45//33
f 45//34 46//34 42//34 41//34
f 43//35 47//35 45//35 41//35
f 48//36 44//36 42//36 46//36
o Cube.003
v -51.509953 -4.000000 -7.775564
v -51.509953 6.000000 -7.775564
v -53.047329 -4.000000 -7.775564
v -53.047329 6.000000 -7.775564
v -51.509953 -4.000000 -46.209930
v -51.509953 6.000000 -46.209930
v -53.047329 -4.000000 -46.209930
v -53.047329 6.000000 -46.209930
vn 0.0000 0.0000 1.0000
vn -1.0000 0.0000 0.0000
vn 0.0000 0.0000 -1.0000
vn 1.0000 0.0000 0.0000
vn 0.0000 -1.0000 0.0000
vn 0.0000 1.0000 0.0000
usemtl Material.006
s off
f 49//37 50//37 52//37 51//37
f 51//38 52//38 56//38 55//38
f 55//39 56//39 54//39 53//39
f 53//40 54//40 50//40 49//40
f 51//41 55//41 53//41 49//41
f 56//42 52//42 50//42 54//42
o Cube.002
v -51.509953 -4.000000 30.350639
v -51.509953 6.000000 30.350639
v -53.047329 -4.000000 30.350639
v -53.047329 6.000000 30.350639
v -51.509953 -4.000000 -8.083726
v -51.509953 6.000000 -8.083726
v -53.047329 -4.000000 -8.083726
v -53.047329 6.000000 -8.083726
vn 0.0000 0.0000 1.0000
vn -1.0000 0.0000 0.0000
vn 0.0000 0.0000 -1.0000
vn 1.0000 0.0000 0.0000
vn 0.0000 -1.0000 0.0000
vn 0.0000 1.0000 0.0000
usemtl Material.005
s off
f 57//43 58//43 60//43 59//43
f 59//44 60//44 64//44 63//44
f 63//45 64//45 62//45 61//45
f 61//46 62//46 58//46 57//46
f 59//47 63//47 61//47 57//47
f 64//48 60//48 58//48 62//48
o Cube.001
v -51.516758 -4.000000 30.291759
v -51.516758 6.000000 30.291759
v -51.516758 -4.000000 28.754383
v -51.516758 6.000000 28.754383
v -13.082394 -4.000000 30.291759
v -13.082394 6.000000 30.291759
v -13.082394 -4.000000 28.754383
v -13.082394 6.000000 28.754383
vn -1.0000 0.0000 0.0000
vn 0.0000 0.0000 -1.0000
vn 1.0000 0.0000 0.0000
vn 0.0000 0.0000 1.0000
vn 0.0000 -1.0000 0.0000
vn 0.0000 1.0000 0.0000
usemtl Material.004
s off
f 65//49 66//49 68//49 67//49
f 67//50 68//50 72//50 71//50
f 71//51 72//51 70//51 69//51
f 69//52 70//52 66//52 65//52
f 67//53 71//53 69//53 65//53
f 72//54 68//54 66//54 70//54
o Cube
v 25.367138 -4.000000 28.754383
v 25.367138 -4.000000 30.291759
v -13.067229 -4.000000 30.291758
v -13.067220 -4.000000 28.754383
v 25.367146 6.000000 28.754385
v 25.367123 6.000000 30.291759
v -13.067235 6.000000 30.291758
v -13.067225 6.000000 28.754383
vn 0.0000 -1.0000 -0.0000
vn 0.0000 1.0000 0.0000
vn 1.0000 0.0000 0.0000
vn -0.0000 -0.0000 1.0000
vn -1.0000 -0.0000 -0.0000
vn 0.0000 0.0000 -1.0000
usemtl Material.003
s off
f 73//55 74//55 75//55 76//55
f 77//56 80//56 79//56 78//56
f 73//57 77//57 78//57 74//57
f 74//58 78//58 79//58 75//58
f 75//59 79//59 80//59 76//59
f 77//60 73//60 76//60 80//60
